# xmcd
#
# Track frame offsets: 
#        150
#        9490
#        17932
#        30972
#        41920
#        51832
#        61260
#        71852
#        81870
#        93307
#        104852
#        114732
#        123582
#        136162
#        148477
#        158637
#        169322
#        179595
#        189460
#        200417
#        211630
#        224140
#
# Disc length: 3137 seconds
#
# Revision: 1
# Processed by: cddbd v1.5.2PL0 Copyright (c) Steve Scherf et al.
# Submitted via: ExactAudioCopyFreeDBPlugin 1.0
#
DISCID=520c3f16
DTITLE=Various Artist - Philadelphia's Doo-Wop Sound:  Swan Masters [
DTITLE=Dee-Jay Jamboree]
DYEAR=1996
DGENRE=Rhythm and Blues
TTITLE0=The Vespers - When I Walk with My Angel
TTITLE1=The Frankie Grier Quartet - Lonesome for You
TTITLE2=The Dreamlovers - Together
TTITLE3=Billy Harner and The Expressions - Anymore
TTITLE4=The Royal Lancers - Oh Little Girl
TTITLE5=The Modern Redcaps - Tammie is Coming Home
TTITLE6=The Styles - Hush Little Girl
TTITLE7=Lee Andrews - You Gave to Me
TTITLE8=Lee Andrews - I Miss You So
TTITLE9=The Madisons - The Wind and the Rain
TTITLE10=Johnny Angel - This is the Night for Love
TTITLE11=The Swans - He's Mine
TTITLE12=Johnny Holiday and The Graduates - Goodbye My Love
TTITLE13=Johnny Jack - True Love at First Sight
TTITLE14=Bill Harton and The Dawns - Like to See You in That Mood
TTITLE15=The Denotations - Nena
TTITLE16=The Encounters - A Place in Your Heart
TTITLE17=Bobby Comstock and The Counts - Your Boyfriend's Back
TTITLE18=Ace Kennedy and The Candies - I Made a Mistake
TTITLE19=Ronnie Dawson - Decided By the Angels
TTITLE20=Teddy and The Twilights - Goodbye to Love
TTITLE21=Rochell Johnson - Playing the Field
EXTD=Audio CD (1996)DeeJay Records/buffalo bop;ASIN: B0000000TD
EXTT0=
EXTT1=
EXTT2=
EXTT3=
EXTT4=
EXTT5=
EXTT6=
EXTT7=
EXTT8=
EXTT9=
EXTT10=
EXTT11=
EXTT12=
EXTT13=
EXTT14=
EXTT15=
EXTT16=
EXTT17=
EXTT18=
EXTT19=
EXTT20=
EXTT21=
PLAYORDER=
